<svg width="79" height="79" viewBox="0 0 79 79" fill="none" xmlns="http://www.w3.org/2000/svg">
<rect x="13.2114" width="12.942" height="12.942" fill="white"/>
<rect x="13.2114" y="26.4232" width="12.942" height="12.942" fill="white"/>
<rect x="13.2114" y="39.6348" width="12.942" height="12.942" fill="white"/>
<rect y="52.8465" width="12.942" height="12.942" fill="white"/>
<rect x="26.4231" y="13.2117" width="12.942" height="12.942" fill="white"/>
<rect x="26.4231" y="26.4232" width="12.942" height="12.942" fill="white"/>
<rect x="26.4231" y="39.6348" width="12.942" height="12.942" fill="white"/>
<rect x="26.4231" y="52.8465" width="12.942" height="12.942" fill="white"/>
<rect x="39.6348" y="13.2117" width="12.942" height="12.942" fill="white"/>
<rect x="39.6348" y="26.4232" width="12.942" height="12.942" fill="white"/>
<rect x="39.6348" y="39.6348" width="12.942" height="12.942" fill="white"/>
<rect x="39.6348" y="52.8465" width="12.942" height="12.942" fill="white"/>
<rect x="66.0581" y="13.2117" width="12.942" height="12.942" fill="white"/>
<rect x="52.8464" y="26.4232" width="12.942" height="12.942" fill="white"/>
<rect x="52.8464" y="39.6348" width="12.942" height="12.942" fill="white"/>
<rect x="52.8464" y="66.058" width="12.942" height="12.942" fill="white"/>
</svg>
