<svg width="142" height="49" viewBox="0 0 142 49" fill="none" xmlns="http://www.w3.org/2000/svg">
<path fill-rule="evenodd" clip-rule="evenodd" d="M38.0921 16.9373C38.0921 16.9373 36.6988 13.5531 32.9103 12.11L29.6014 19.1531C26.4044 15.3784 20.9562 14.1696 16.3978 16.5523C11.5491 19.0858 9.39642 24.8015 11.1361 29.8604L3.75371 28.5546C2.72801 32.515 4.6542 35.6192 4.6542 35.6192C4.6542 35.6192 6.04756 39.0034 9.836 40.4465L13.1449 33.4008C16.3392 37.1781 21.7901 38.3869 26.3485 36.0069C31.1946 33.4734 33.3499 27.7577 31.6076 22.6961L38.99 24.0019C40.013 20.0415 38.0895 16.94 38.0895 16.94L38.0921 16.9373ZM21.521 28.3688C20.0504 28.3688 18.8569 27.405 18.8569 26.215C18.8569 25.025 20.0504 24.0611 21.521 24.0611C22.9916 24.0611 24.1852 25.025 24.1852 26.215C24.1852 27.405 22.9916 28.3688 21.521 28.3688Z" fill="url(#paint0_linear_1061_6838)"/>
<path fill-rule="evenodd" clip-rule="evenodd" d="M19.5309 23.38C19.7866 23.2131 20.0637 23.0838 20.3488 22.9923L20.4953 22.1604L21.878 22.0958L22.0991 22.9115C22.3922 22.9761 22.6773 23.0785 22.9463 23.2211L23.6337 22.7392L24.6541 23.6815L24.2411 24.4165C24.4063 24.675 24.5342 24.955 24.6248 25.2431L25.448 25.3911L25.5119 26.7885L24.7047 27.0119C24.6408 27.3054 24.5395 27.5961 24.3983 27.8681L24.8752 28.5627L23.9427 29.5938L23.2154 29.1765C22.9597 29.3435 22.6826 29.4727 22.3975 29.5642L22.251 30.3961L20.8683 30.4608L20.6472 29.645C20.3568 29.5804 20.069 29.4781 19.8 29.3354L19.1126 29.8173L18.0922 28.875L18.5052 28.14C18.34 27.8815 18.2121 27.6015 18.1215 27.3135L17.2983 27.1654L17.2344 25.7681L18.0416 25.5446C18.1056 25.2485 18.2068 24.9604 18.348 24.6885L17.8711 23.9938L18.8036 22.9627L19.5309 23.38ZM20.3195 25.2215C19.768 25.8327 19.8106 26.7831 20.4154 27.3404C21.0202 27.8977 21.9606 27.8546 22.5121 27.2435C23.0636 26.6323 23.0209 25.6819 22.4162 25.1246C21.8114 24.5673 20.871 24.6104 20.3195 25.2215Z" fill="#BC4782"/>
<path d="M72.428 8.57233V10.6292H60.2128V42.0646H58.1774V10.6292H45.9622V8.57233H72.428Z" fill="#EEEEEE" stroke="#EEEEEE" stroke-width="2" stroke-miterlimit="10"/>
<path d="M93.7812 18.4288V42.0646H91.8869L91.839 36.8011C90.9545 38.5565 89.6197 39.935 87.8374 40.9392C86.0551 41.9434 84.041 42.4469 81.8004 42.4469C79.5599 42.4469 77.5084 41.93 75.7394 40.8907C73.9704 39.8542 72.5904 38.4111 71.5967 36.5615C70.6029 34.7119 70.1047 32.6065 70.1047 30.2454C70.1047 27.8842 70.6029 25.7788 71.5967 23.9292C72.5904 22.0796 73.9704 20.6365 75.7394 19.6C77.5058 18.5634 79.5279 18.0438 81.8004 18.0438C84.073 18.0438 86.0524 18.5554 87.8374 19.5757C89.6197 20.5961 90.9545 21.9854 91.839 23.7381L91.8869 18.4261H93.7812V18.4288ZM87.0328 39.2888C88.5328 38.4273 89.6997 37.2157 90.5362 35.6515C91.3728 34.09 91.791 32.2861 91.791 30.2454C91.791 28.2046 91.3728 26.4007 90.5362 24.8392C89.6997 23.2777 88.5301 22.0634 87.0328 21.2019C85.5329 20.3404 83.8385 19.9096 81.9443 19.9096C80.0501 19.9096 78.313 20.3404 76.8318 21.2019C75.3478 22.0634 74.1862 23.275 73.3523 24.8392C72.5158 26.4034 72.0975 28.2046 72.0975 30.2454C72.0975 32.2861 72.5158 34.09 73.3523 35.6515C74.1889 37.2157 75.3478 38.4273 76.8318 39.2888C78.3157 40.1504 80.0208 40.5811 81.9443 40.5811C83.8678 40.5811 85.5356 40.1504 87.0328 39.2888Z" fill="#EEEEEE" stroke="#EEEEEE" stroke-width="2" stroke-miterlimit="10"/>
<path d="M122.496 11.0115C121.691 11.9377 121.289 13.4696 121.289 15.6046V18.4288H129.1V20.2946H121.289V42.0646H119.301V20.2946H106.045V42.0646H104.057V20.2946H99.2749V18.4288H104.057V16.8027C104.057 14.3796 104.585 12.4654 105.642 11.06C106.7 9.6573 108.413 8.95461 110.779 8.95461C112.516 8.95461 114.077 9.40153 115.465 10.2954L114.423 11.7788C113.286 11.1408 112.071 10.8231 110.776 10.8231C109.196 10.8231 108.013 11.2861 107.225 12.2096C106.436 13.1358 106.042 14.665 106.042 16.8027V18.4288H119.299V15.6046C119.299 10.3735 121.539 7.75653 126.023 7.75653C127.853 7.75653 129.415 8.30038 130.709 9.38268L129.668 10.8177C128.658 10.0208 127.459 9.6223 126.068 9.6223C124.489 9.6223 123.298 10.0854 122.493 11.0088L122.496 11.0115Z" fill="#EEEEEE" stroke="#EEEEEE" stroke-width="2" stroke-miterlimit="10"/>
<path d="M135.374 12.3281C135.044 11.9942 134.876 11.5715 134.876 11.06C134.876 10.5484 135.041 10.1204 135.374 9.76767C135.705 9.41767 136.139 9.24268 136.677 9.24268C137.18 9.24268 137.607 9.41767 137.956 9.76767C138.302 10.1204 138.475 10.5484 138.475 11.06C138.475 11.5715 138.302 11.9942 137.956 12.3281C137.609 12.6619 137.183 12.8315 136.677 12.8315C136.139 12.8315 135.707 12.6646 135.374 12.3281ZM135.683 18.4288H137.671V42.0646H135.683V18.4288Z" fill="#EEEEEE" stroke="#EEEEEE" stroke-width="2" stroke-miterlimit="10"/>
<defs>
<linearGradient id="paint0_linear_1061_6838" x1="3.45266" y1="26.2796" x2="39.2937" y2="26.2796" gradientUnits="userSpaceOnUse">
<stop offset="0.79" stop-color="#47BC82"/>
<stop offset="0.85" stop-color="#5FC4A4"/>
<stop offset="0.92" stop-color="#7FCFD0"/>
</linearGradient>
</defs>
</svg>
