<svg width="21" height="10" viewBox="0 0 21 10" fill="none" xmlns="http://www.w3.org/2000/svg">
<path d="M4.79297 1.37305L1.81934 10H0.0214844L3.76758 0.046875H4.91602L4.79297 1.37305ZM7.28125 10L4.30078 1.37305L4.1709 0.046875H5.32617L9.08594 10H7.28125ZM7.1377 6.30859V7.66895H1.72363V6.30859H7.1377ZM13.9805 6.28809H11.3896V4.92773H13.9805C14.4316 4.92773 14.7962 4.85482 15.0742 4.70898C15.3522 4.56315 15.555 4.36263 15.6826 4.10742C15.8148 3.84766 15.8809 3.55143 15.8809 3.21875C15.8809 2.9043 15.8148 2.61035 15.6826 2.33691C15.555 2.05892 15.3522 1.83561 15.0742 1.66699C14.7962 1.49837 14.4316 1.41406 13.9805 1.41406H11.916V10H10.2002V0.046875H13.9805C14.7507 0.046875 15.4046 0.183594 15.9424 0.457031C16.4847 0.725911 16.8971 1.09961 17.1797 1.57812C17.4622 2.05208 17.6035 2.5944 17.6035 3.20508C17.6035 3.84766 17.4622 4.39909 17.1797 4.85938C16.8971 5.31966 16.4847 5.67285 15.9424 5.91895C15.4046 6.16504 14.7507 6.28809 13.9805 6.28809ZM20.9736 0.046875V10H19.2578V0.046875H20.9736Z" fill="white"/>
</svg>
