<svg width="24" height="24" viewBox="0 0 24 24" fill="none" xmlns="http://www.w3.org/2000/svg">
<path d="M12 10.6667C8.42222 10.6667 5.52778 10.1222 3.31667 9.03333C1.10556 7.94444 0 6.71111 0 5.33333C0 3.93333 1.10556 2.69444 3.31667 1.61667C5.52778 0.538889 8.42222 0 12 0C15.5778 0 18.4722 0.538889 20.6833 1.61667C22.8944 2.69444 24 3.93333 24 5.33333C24 6.71111 22.8944 7.94444 20.6833 9.03333C18.4722 10.1222 15.5778 10.6667 12 10.6667ZM12 17.3333C8.75556 17.3333 5.94444 16.8444 3.56667 15.8667C1.18889 14.8889 0 13.7111 0 12.3333V9C0 9.86667 0.416667 10.6167 1.25 11.25C2.08333 11.8833 3.11667 12.4056 4.35 12.8167C5.58333 13.2278 6.89444 13.5278 8.28333 13.7167C9.67222 13.9056 10.9111 14 12 14C13.1111 14 14.3556 13.9056 15.7333 13.7167C17.1111 13.5278 18.4167 13.2333 19.65 12.8333C20.8833 12.4333 21.9167 11.9167 22.75 11.2833C23.5833 10.65 24 9.88889 24 9V12.3333C24 13.7111 22.8111 14.8889 20.4333 15.8667C18.0556 16.8444 15.2444 17.3333 12 17.3333ZM12 24C8.75556 24 5.94444 23.5111 3.56667 22.5333C1.18889 21.5556 0 20.3778 0 19V15.6667C0 16.5333 0.416667 17.2833 1.25 17.9167C2.08333 18.55 3.11667 19.0722 4.35 19.4833C5.58333 19.8944 6.89444 20.1944 8.28333 20.3833C9.67222 20.5722 10.9111 20.6667 12 20.6667C13.1111 20.6667 14.3556 20.5722 15.7333 20.3833C17.1111 20.1944 18.4167 19.9 19.65 19.5C20.8833 19.1 21.9167 18.5833 22.75 17.95C23.5833 17.3167 24 16.5556 24 15.6667V19C24 20.3778 22.8111 21.5556 20.4333 22.5333C18.0556 23.5111 15.2444 24 12 24Z" fill="#47BC82"/>
</svg>
